# xmcd
#
# Track frame offsets: 
#        150
#        20917
#        36277
#        46906
#        63939
#        79106
#        99457
#        112292
#        126597
#        140401
#        151528
#        167368
#
# Disc length: 2568 seconds
#
# Revision: 0
# Processed by: cddbd v1.5.2PL0 Copyright (c) Steve Scherf et al.
# Submitted via: ExactAudioCopy v1.3
#
DISCID=9d0a060c
DTITLE=Mercury Rev - Bobbie Gentry's Delta Sweete Revisited
DYEAR=2019
DGENRE=Country
TTITLE0=Okolona River Bottom Band ft. Norah Jones
TTITLE1=Big Boss Man ft. Hope Sandoval
TTITLE2=Reunion ft. Rachel Goswell
TTITLE3=Parchman Farm ft. Carice van Houten
TTITLE4=Mornin' Glory ft. Laetitia Sadier
TTITLE5=Sermon ft. Margo Price
TTITLE6=Tobacco Road ft. Susanne Sundfør
TTITLE7=Penduli Pendulum ft. Vashti Bunyan with Kaela Sinclair
TTITLE8=Jessye Lisabeth ft. Phoebe Bridgers
TTITLE9=Refractions ft. Marissa Nadle
TTITLE10=Courtyard ft. Beth Orton
TTITLE11=Ode To Billie Joe ft. Lucinda Williams
EXTD=
EXTT0=
EXTT1=
EXTT2=
EXTT3=
EXTT4=
EXTT5=
EXTT6=
EXTT7=
EXTT8=
EXTT9=
EXTT10=
EXTT11=
PLAYORDER=
